<svg xmlns="http://www.w3.org/2000/svg" width="64" height="64" viewBox="0 0 64 64" fill="none">
  <!-- The home-screen icon (iOS, Android). These platforms want an opaque square and apply their
       own rounded or circular mask, so the background runs to the edges and the mark is kept
       inside the central 80% "safe zone" that masks never cut into. -->
  <rect width="64" height="64" fill="#1a1714"/>
  <g transform="translate(32 32) scale(0.85) translate(-32 -32)">
    <circle cx="32" cy="32" r="25" stroke="#a89885" stroke-width="1.5" opacity="0.7"/>
    <path d="M32 4.5v5M32 54.5v5M4.5 32h5M54.5 32h5" stroke="#a89885" stroke-width="1.5" opacity="0.7"/>
    <path d="M32 11c4 10 10 19 10 29l-4 11H26l-4-11c0-10 6-19 10-29z" fill="#c9a84c"/>
    <path d="M32 11c4 10 10 19 10 29l-4 11h-6z" fill="#8a6a28"/>
    <path d="M32 36v15" stroke="#1a1714" stroke-width="2"/>
    <circle cx="32" cy="34" r="3.4" fill="#1a1714"/>
  </g>
</svg>
